{"title":"Ninja Assassin 2009 - Imagine - Unrar","uid":5190932,"size":688047004,"categoryP":"video","categoryS":"movies","magnet":"?xt=urn:btih:1a9b43ac69f81e2da5ad672b946b85a591507e1e&amp;dn=Ninja+Assassin+2009+-+Imagine+-+Unrar&amp;tr=udp%3A%2F%2Ftracker.openbittorrent.com%3A80&amp;tr=udp%3A%2F%2Fopen.demonii.com%3A1337&amp;tr=udp%3A%2F%2Ftracker.coppersurfer.tk%3A6969&amp;tr=udp%3A%2F%2Fexodus.desync.com%3A6969","seeders":1,"leechers":1,"uploader":"IwannaFan2","files":1,"time":1259684402,"description":"This is the newest and best version available. Found it at MYP2P.CA\nBest place to go for unlimited free movie downloads and streaming media.\nEnjoy!\n\nVideo\nID                               : 0\nFormat                           : MPEG-4 Visual\nFormat profile                   : Advanced Simple@L5\nFormat settings, BVOP            : Yes\nFormat settings, QPel            : No\nFormat settings, GMC             : No warppoints\nFormat settings, Matrix          : Default (MPEG)\nMuxing mode                      : Packed bitstream\nCodec ID                         : XVID\nCodec ID/Hint                    : XviD\nDuration                         : 1h 30mn\nBit rate                         : 954 Kbps\nWidth                            : 640 pixels\nHeight                           : 304 pixels\nDisplay aspect ratio             : 2.2\nFrame rate                       : 23.976 fps\nResolution                       : 24 bits\nColorimetry                      : 4:2:0\nScan type                        : Progressive\nBits/(Pixel*Frame)               : 0.205\nStream size                      : 619 MiB (94%)\nWriting library                  : XviD 1.2.1 (UTC 2008-12-04)\n\nAudio\nID                               : 1\nFormat                           : MPEG Audio\nFormat version                   : Version 2\nFormat profile                   : Layer 3\nCodec ID                         : 55\nCodec ID/Hint                    : MP3\nDuration                         : 1h 30mn\nBit rate mode                    : Constant\nBit rate                         : 48.0 Kbps\nChannel(s)                       : 2 channels\nSampling rate                    : 24.0 KHz\nResolution                       : 16 bits\nStream size                      : 31.1 MiB (5%)\nAlignment                        : Split accross interleaves\nInterleave, duration             : 42 ms (1.00 video frame)\nInterleave, preload duration     : 500 ms","torrent":{"xt":"urn:btih:1a9b43ac69f81e2da5ad672b946b85a591507e1e","amp;dn":"Ninja+Assassin+2009+-+Imagine+-+Unrar","amp;tr":["udp%3A%2F%2Ftracker.openbittorrent.com%3A80","udp%3A%2F%2Fopen.demonii.com%3A1337","udp%3A%2F%2Ftracker.coppersurfer.tk%3A6969","udp%3A%2F%2Fexodus.desync.com%3A6969"],"infoHash":"1a9b43ac69f81e2da5ad672b946b85a591507e1e","infoHashBuffer":{"type":"Buffer","data":[26,155,67,172,105,248,30,45,165,173,103,43,148,107,133,165,145,80,126,30]},"announce":[],"urlList":[]}}